HIERARCHY
ROOT hip
{
  OFFSET 0 0 0
  CHANNELS 6 Xposition Yposition Zposition Zrotation Yrotation Xrotation
  JOINT abdomen
  {
    OFFSET 0 20.6881 -0.73152
    CHANNELS 3 Zrotation Xrotation Yrotation
    JOINT chest
    {
      OFFSET 0 11.7043 -0.48768
      CHANNELS 3 Zrotation Xrotation Yrotation
      JOINT neck
      {
        OFFSET 0 22.1894 -2.19456
        CHANNELS 3 Zrotation Xrotation Yrotation
        JOINT head
        {
          OFFSET -0.24384 7.07133 1.2192
          CHANNELS 3 Zrotation Xrotation Yrotation
          JOINT leftEye
          {
            OFFSET 4.14528 8.04674 8.04672
            CHANNELS 3 Zrotation Xrotation Yrotation
            End Site
            {
              OFFSET 1 0 0
            }
          }
          JOINT rightEye
          {
            OFFSET -3.6576 8.04674 8.04672
            CHANNELS 3 Zrotation Xrotation Yrotation
            End Site
            {
              OFFSET 1 0 0
            }
          }
        }
      }
      JOINT rCollar
      {
        OFFSET -2.68224 19.2634 -4.8768
        CHANNELS 3 Zrotation Xrotation Yrotation
        JOINT rShldr
        {
          OFFSET -8.77824 -1.95073 1.46304
          CHANNELS 3 Zrotation Xrotation Yrotation
          JOINT rForeArm
          {
            OFFSET -28.1742 -1.7115 0.48768
            CHANNELS 3 Zrotation Xrotation Yrotation
            JOINT rHand
            {
              OFFSET -22.5879 0.773209 7.07136
              CHANNELS 3 Zrotation Xrotation Yrotation
              JOINT rThumb1
              {
                OFFSET -1.2192 -0.487915 3.41376
                CHANNELS 3 Zrotation Xrotation Yrotation
                JOINT rThumb2
                {
                  OFFSET -3.37035 -0.52449 3.41376
                  CHANNELS 3 Zrotation Xrotation Yrotation
                  End Site
                  {
                    OFFSET -1.78271 -1.18214 1.43049
                  }
                }
              }
              JOINT rIndex1
              {
                OFFSET -7.75947 0.938293 5.60832
                CHANNELS 3 Zrotation Xrotation Yrotation
                JOINT rIndex2
                {
                  OFFSET -2.54057 -0.884171 1.56538
                  CHANNELS 3 Zrotation Xrotation Yrotation
                  End Site
                  {
                    OFFSET -1.62519 -0.234802 1.16502
                  }
                }
              }
              JOINT rMid1
              {
                OFFSET -8.24714 1.18213 3.41376
                CHANNELS 3 Zrotation Xrotation Yrotation
                JOINT rMid2
                {
                  OFFSET -3.10165 -0.590103 1.0647
                  CHANNELS 3 Zrotation Xrotation Yrotation
                  End Site
                  {
                    OFFSET -2.48547 -0.328903 0.83742
                  }
                }
              }
              JOINT rRing1
              {
                OFFSET -8.82822 0.546677 1.51678
                CHANNELS 3 Zrotation Xrotation Yrotation
                JOINT rRing2
                {
                  OFFSET -2.60934 -0.819778 -0.0198488
                  CHANNELS 3 Zrotation Xrotation Yrotation
                  End Site
                  {
                    OFFSET -2.33842 -0.294052 0.168128
                  }
                }
              }
              JOINT rPinky1
              {
                OFFSET -8.27202 -0.0477905 -0.4584
                CHANNELS 3 Zrotation Xrotation Yrotation
                JOINT rPinky2
                {
                  OFFSET -1.82734 -0.647385 -0.700984
                  CHANNELS 3 Zrotation Xrotation Yrotation
                  End Site
                  {
                    OFFSET -1.69225 -0.51767 -0.607171
                  }
                }
              }
            }
          }
        }
      }
      JOINT lCollar
      {
        OFFSET 2.68224 19.2634 -4.8768
        CHANNELS 3 Zrotation Xrotation Yrotation
        JOINT lShldr
        {
          OFFSET 8.77824 -1.95073 1.46304
          CHANNELS 3 Zrotation Xrotation Yrotation
          JOINT lForeArm
          {
            OFFSET 28.1742 -1.7115 0.48768
            CHANNELS 3 Zrotation Xrotation Yrotation
            JOINT lHand
            {
              OFFSET 22.5879 0.773209 7.07136
              CHANNELS 3 Zrotation Xrotation Yrotation
              JOINT lThumb1
              {
                OFFSET 1.2192 -0.487915 3.41376
                CHANNELS 3 Zrotation Xrotation Yrotation
                JOINT lThumb2
                {
                  OFFSET 3.37035 -0.52449 3.41376
                  CHANNELS 3 Zrotation Xrotation Yrotation
                  End Site
                  {
                    OFFSET 1.78271 -1.18214 1.43049
                  }
                }
              }
              JOINT lIndex1
              {
                OFFSET 7.75947 0.938293 5.60832
                CHANNELS 3 Zrotation Xrotation Yrotation
                JOINT lIndex2
                {
                  OFFSET 2.54057 -0.884171 1.56538
                  CHANNELS 3 Zrotation Xrotation Yrotation
                  End Site
                  {
                    OFFSET 1.62519 -0.234802 1.16502
                  }
                }
              }
              JOINT lMid1
              {
                OFFSET 8.24714 1.18213 3.41376
                CHANNELS 3 Zrotation Xrotation Yrotation
                JOINT lMid2
                {
                  OFFSET 3.10165 -0.590103 1.0647
                  CHANNELS 3 Zrotation Xrotation Yrotation
                  End Site
                  {
                    OFFSET 2.48547 -0.328903 0.83742
                  }
                }
              }
              JOINT lRing1
              {
                OFFSET 8.82822 0.546677 1.51678
                CHANNELS 3 Zrotation Xrotation Yrotation
                JOINT lRing2
                {
                  OFFSET 2.60934 -0.819778 -0.0198488
                  CHANNELS 3 Zrotation Xrotation Yrotation
                  End Site
                  {
                    OFFSET 2.33842 -0.294052 0.168128
                  }
                }
              }
              JOINT lPinky1
              {
                OFFSET 8.27202 -0.0477905 -0.4584
                CHANNELS 3 Zrotation Xrotation Yrotation
                JOINT lPinky2
                {
                  OFFSET 1.82734 -0.647385 -0.700984
                  CHANNELS 3 Zrotation Xrotation Yrotation
                  End Site
                  {
                    OFFSET 1.69225 -0.51767 -0.607171
                  }
                }
              }
            }
          }
        }
      }
    }
  }
  JOINT rButtock
  {
    OFFSET -8.77824 4.35084 1.2192
    CHANNELS 3 Zrotation Xrotation Yrotation
    JOINT rThigh
    {
      OFFSET 0 -1.70687 -2.19456
      CHANNELS 3 Zrotation Xrotation Yrotation
      JOINT rShin
      {
        OFFSET 0 -36.8199 0.73152
        CHANNELS 3 Zrotation Xrotation Yrotation
        JOINT rFoot
        {
          OFFSET 0.73152 -45.1104 -5.12064
          CHANNELS 3 Zrotation Xrotation Yrotation
          End Site
          {
            OFFSET -1.1221 -3.69964 12.103
          }
        }
      }
    }
  }
  JOINT lButtock
  {
    OFFSET 8.77824 4.35084 1.2192
    CHANNELS 3 Zrotation Xrotation Yrotation
    JOINT lThigh
    {
      OFFSET 0 -1.70687 -2.19456
      CHANNELS 3 Zrotation Xrotation Yrotation
      JOINT lShin
      {
        OFFSET 0 -36.8199 0.73152
        CHANNELS 3 Zrotation Xrotation Yrotation
        JOINT lFoot
        {
          OFFSET -0.73152 -45.1104 -5.12064
          CHANNELS 3 Zrotation Xrotation Yrotation
          End Site
          {
            OFFSET 1.1221 -3.69964 12.103
          }
        }
      }
    }
  }
}
MOTION
Frames:	4
Frame Time:	0.03333
0.0 0.0 0.0 0.0 0.0 0.0 0.0 0.0 0.0 0.0 0.0 0.0 0.0 0.0 0.0 0.0 0.0 0.0 0.0 0.0 0.0 0.0 0.0 0.0 0.0 0.0 0.0 0.0 0.0 0.0 0.0 0.0 0.0 0.0 0.0 0.0 0.0 0.0 0.0 0.0 0.0 0.0 0.0 0.0 0.0 0.0 0.0 0.0 0.0 0.0 0.0 0.0 0.0 0.0 0.0 0.0 0.0 0.0 0.0 0.0 0.0 0.0 0.0 0.0 0.0 0.0 0.0 0.0 0.0 0.0 0.0 0.0 0.0 0.0 0.0 0.0 0.0 0.0 0.0 0.0 0.0 0.0 0.0 0.0 0.0 0.0 0.0 0.0 0.0 0.0 0.0 0.0 0.0 0.0 0.0 0.0 0.0 0.0 0.0 0.0 0.0 0.0 0.0 0.0 0.0 0.0 0.0 0.0 0.0 0.0 0.0 0.0 0.0 0.0 0.0 0.0 0.0 0.0 0.0 0.0 0.0 0.0 0.0 0.0 0.0 0.0 0.0 0.0 0.0 0.0 0.0 0.0
0.2636 62.1331 0.0805 0.681866 60.520072 0.0549 2.612194 0.141293 -96.693944 -8.800062 -9.435471 125.767202 -7.647496 -2.94682 -117.143443 47.551294 6.447349 80.995919 165.219989 -12.847447 81.919838 44.351641 9.969146 24.155765 -83.811132 -22.659345 165.036493 -161.632197 32.10994 167.804029 96.752375 63.596554 64.002785 -136.011721 59.519543 64.795003 4.35912 -15.913578 34.017476 -32.102142 27.671836 -135.442991 -164.056419 42.805908 -143.518766 -114.080735 -12.640692 -109.321728 125.529117 30.385685 -87.020393 -58.516398 87.162205 57.492421 -160.84342 31.979984 -104.456946 -152.460902 -78.651567 171.879976 -75.508005 8.477472 -86.001862 -36.084913 -57.483076 -33.045577 88.926259 -34.413368 -166.150425 175.136396 -76.283058 -175.172189 168.542946 7.110424 15.607991 -50.756938 -61.077556 14.235745 175.541814 -0.692193 -61.90947 -78.517587 -61.003521 -26.159219 -43.999906 -16.526933 -60.716622 69.425174 70.551138 -15.12265 169.416439 55.725237 11.572495 -171.708441 -37.899764 16.588821 85.718786 38.004261 101.142149 -171.57238 44.825772 175.409112 94.756479 42.011449 79.144405 21.242096 -38.966336 27.870927 50.687695 14.775571 101.762272 0.58135 53.30244 -0.45923 7.452987 -0.285314 107.329739 -67.634986 8.982113 101.836316 -1.405262 -49.487541 0.105358 1.485392 47.435698 -180.0 6.092347 -3.15763 86.757215 -67.118474 -14.259822 96.979843
-0.3655 61.025 0.8181 -176.464508 60.27286 -174.000667 -0.032411 14.022667 113.357161 -5.54198 1.922599 -96.664966 14.77034 26.456541 89.25684 -41.613687 11.644634 -77.775137 12.336929 -3.655089 -32.896021 20.02328 2.46099 13.874354 -153.395102 -40.075395 179.693967 173.167293 -19.217572 -150.881429 166.762817 41.743925 62.686044 -176.440193 1.250775 142.944592 -172.092542 -9.348613 112.790425 -140.890347 22.563192 88.781134 5.781752 -15.651055 -11.847736 -169.768061 -75.148841 114.458693 -166.643836 -27.137019 148.991942 -164.846683 9.563268 141.881891 7.703743 -29.557222 3.029555 -159.581932 3.564735 -167.556629 -125.248004 43.627163 179.458825 -71.170559 -49.865773 -75.987067 128.050973 52.890533 -131.287689 97.357237 41.82844 -65.875088 0.90948 -51.604258 113.872214 -169.517078 -22.380753 -133.389024 164.1559 10.03082 -82.474907 -49.979376 -65.165088 -51.380057 -92.236674 -65.156398 -62.549509 21.150014 51.205682 -5.414002 10.767642 -0.241325 -1.419275 155.628926 -48.220108 -125.981956 132.970228 -4.074192 -172.274264 -15.802226 0.14523 1.977081 -4.040907 59.096411 -27.407046 8.304647 36.073363 -15.560079 0.172637 4.973707 -1.990441 -24.100292 -35.177523 -125.52 -68.081775 -20.382659 45.977414 106.818397 15.881522 5.531758 42.111955 17.591642 32.644323 -48.911215 -60.28468 60.837321 72.599408 4.656103 -105.087499 -81.7091 -37.044458 12.325995
-1.0304 60.4845 0.2073 170.526876 64.543328 175.92787 0.624479 20.546019 -0.0 -5.869458 -12.839477 19.792844 18.745507 20.752397 56.0988 -38.865753 -1.047477 -49.160298 3.936439 0.625906 18.062339 11.697175 -2.762756 -26.494134 -9.595802 44.947336 7.355916 -113.505392 5.921297 131.197201 7.451572 13.815024 -137.312372 179.052588 -13.945069 137.104312 -175.233928 -24.476379 92.918077 -7.334319 -17.389699 2.320376 -159.886169 -77.569328 129.906464 -145.008289 -35.756235 88.907911 -166.744522 13.948467 134.72887 161.149935 0.187457 144.605887 18.578303 -42.327096 7.77437 -60.132714 -59.432684 -72.880682 -26.744789 -27.66851 27.875086 -118.257692 42.512244 -111.390307 14.293669 32.835393 -18.303818 -56.539013 3.1961 -39.388317 159.866348 39.198876 -39.235061 -176.682564 -20.016657 -131.133114 -166.560412 -22.426601 -79.714562 138.85594 22.619906 -61.563713 93.395942 30.827953 -66.645742 -0.758191 -0.026397 -21.775769 159.529112 16.230825 -130.526424 -106.633857 -51.727938 -97.027868 156.033736 -43.903033 170.646125 58.424656 -28.383667 102.323031 83.387548 -65.391719 88.421244 42.976452 -36.341746 14.315874 58.885604 19.473183 26.550943 -97.355449 -10.184512 122.569696 41.498485 -76.505607 -18.585072 -11.936918 38.551608 -124.026278 2.248394 6.79379 4.126537 71.370381 -60.880612 -180.0 83.345923 -22.774355 170.167284 122.579431 -58.618795 -148.870963
